<svg width="24" height="24" viewBox="0 0 24 24" fill="none" xmlns="http://www.w3.org/2000/svg">
<path d="M12 16.5C14.4853 16.5 16.5 14.4853 16.5 12C16.5 9.51472 14.4853 7.5 12 7.5C9.51472 7.5 7.5 9.51472 7.5 12C7.5 14.4853 9.51472 16.5 12 16.5Z" stroke="#080707" stroke-width="2" stroke-linecap="round" stroke-linejoin="round"/>
<path d="M17.2218 6.10313C17.4593 6.32188 17.6843 6.54688 17.8968 6.77813L20.4562 7.14375C20.8732 7.86798 21.1946 8.64318 21.4124 9.45L19.8562 11.5219C19.8562 11.5219 19.8843 12.1594 19.8562 12.4781L21.4124 14.55C21.1956 15.3572 20.8741 16.1325 20.4562 16.8563L17.8968 17.2219C17.8968 17.2219 17.4562 17.6813 17.2218 17.8969L16.8562 20.4563C16.1319 20.8733 15.3567 21.1947 14.5499 21.4125L12.478 19.8563C12.1599 19.8844 11.8399 19.8844 11.5218 19.8563L9.4499 21.4125C8.64274 21.1957 7.8674 20.8742 7.14365 20.4563L6.77803 17.8969C6.54678 17.6781 6.32178 17.4531 6.10303 17.2219L3.54365 16.8563C3.12664 16.132 2.80521 15.3568 2.5874 14.55L4.14365 12.4781C4.14365 12.4781 4.11553 11.8406 4.14365 11.5219L2.5874 9.45C2.8042 8.64284 3.12568 7.8675 3.54365 7.14375L6.10303 6.77813C6.32178 6.54688 6.54678 6.32188 6.77803 6.10313L7.14365 3.54375C7.86788 3.12673 8.64308 2.80531 9.4499 2.5875L11.5218 4.14375C11.8399 4.11562 12.1599 4.11562 12.478 4.14375L14.5499 2.5875C15.3571 2.8043 16.1324 3.12578 16.8562 3.54375L17.2218 6.10313Z" stroke="#080707" stroke-width="2" stroke-linecap="round" stroke-linejoin="round"/>
</svg>
