<svg width="251" height="255" viewBox="0 0 251 255" fill="none" xmlns="http://www.w3.org/2000/svg">
<path fill-rule="evenodd" clip-rule="evenodd" d="M118.462 200.41C83.0619 192.662 35.8947 177.287 43.6456 124.532C51.3965 71.7769 84.622 51.436 125.728 51.436C166.832 51.436 213.533 82.4477 204.366 146.691C195.198 210.935 153.862 208.158 118.462 200.41ZM234.821 136.817C236.282 122.138 234.729 107.613 230.557 93.9979L242.461 87.6214C244.467 86.5471 245.222 84.0503 244.149 82.0444L227.898 51.7031C226.822 49.6972 224.324 48.9423 222.318 50.0167L210.414 56.3932C201.39 45.378 190.16 36.0374 177.132 29.1201L181.037 16.1996C181.697 14.0215 180.465 11.7223 178.286 11.0639L145.34 1.10134C143.16 0.442874 140.863 1.67453 140.203 3.8526L136.298 16.7731C121.617 15.3117 110.921 20.6915 97.3048 24.8612L90.928 12.9571C89.854 10.9513 87.3568 10.1964 85.3513 11.2707L55.01 27.5235C53.0042 28.5978 52.2493 31.0946 53.3236 33.1001L59.7001 45.0045C48.6849 54.0284 35.5177 61.4321 28.6005 74.4616L15.6796 70.5549C13.5019 69.8964 11.2023 71.128 10.5439 73.3058L0.581685 106.253C-0.0767764 108.431 1.15488 110.73 3.3326 111.389L16.2535 115.296C14.7921 129.975 16.3452 144.5 20.5148 158.115L8.61078 164.492C6.60494 165.566 5.85005 168.063 6.92436 170.069L23.1771 200.41C24.2514 202.415 26.7482 203.171 28.7537 202.096L40.6581 195.719C49.682 206.735 60.9124 216.076 73.9419 222.993L70.0351 235.913C69.3766 238.091 70.6083 240.391 72.786 241.049L105.734 251.01C107.909 251.67 110.21 250.438 110.87 248.259L114.775 235.34C129.453 236.801 143.979 235.248 157.595 231.078L163.97 242.983C165.046 244.988 167.543 245.742 169.55 244.669L199.891 228.416C201.894 227.342 202.652 224.845 201.576 222.839L195.198 210.935C206.215 201.911 215.554 190.681 222.474 177.651L235.392 181.558C237.571 182.216 239.872 180.985 240.529 178.807L250.49 145.86C251.15 143.682 249.918 141.382 247.739 140.724L234.821 136.817Z" fill="#5B96F7"/>
<path fill-rule="evenodd" clip-rule="evenodd" d="M171.073 62.744L169.926 62.7052L169.894 63.7246C169.839 65.5588 169.864 67.5209 169.892 69.6602C169.911 71.151 169.931 72.728 169.926 74.4077L169.736 77.7245C169.741 80.8145 169.762 85.1154 169.801 90.6274L169.925 106.318C169.082 106.598 168.448 107.326 168.321 108.212C167.626 108.318 167.092 108.908 167.092 109.619C167.092 110.122 167.359 110.565 167.763 110.819L167.272 112.005C167.054 112.532 166.694 112.983 166.231 113.308C164.204 114.734 163.01 117.045 163.038 119.488C163.039 119.553 163.041 119.617 163.043 119.682C163.052 119.916 163.253 120.097 163.492 120.09C163.731 120.082 163.918 119.885 163.909 119.651C163.907 119.593 163.905 119.536 163.905 119.478C163.88 117.312 165.321 115.263 167.12 113.998C167.715 113.578 168.178 113 168.458 112.324L168.604 111.044H169.22C169.22 111.044 169.435 112.196 169.435 113.096C169.435 113.997 169.22 115.781 169.22 115.781H168.51C167.697 115.781 167.035 116.429 167.035 117.225C167.035 118.022 167.697 118.67 168.51 118.67H168.612C169.425 118.67 169.704 118.254 169.704 117.225C169.704 116.687 169.764 116.302 170.643 116.302C171.521 116.302 171.295 117.225 171.295 117.225C171.295 118.022 171.957 118.67 172.77 118.67H172.872C173.685 118.67 174.347 118.022 174.347 117.225C174.347 116.429 172.975 115.755 172.162 115.755C172.162 115.755 171.945 114.134 171.945 113.308C171.945 112.612 172.162 111.189 172.162 111.189H171.295C171.295 111.189 171.476 112.517 171.476 113.328C171.476 114.139 171.295 115.755 171.295 115.755C171.295 115.755 170.817 115.841 170.59 115.846C170.362 115.851 170.087 115.781 170.087 115.781C170.087 115.781 169.897 114.123 169.897 113.328C169.897 112.532 170.087 111.044 170.087 111.044H171.295H172.162H172.778L173.307 112.323C173.573 112.966 174.369 113.531 174.976 113.961L175.053 114.015C176.811 115.264 177.478 117.277 177.478 119.401C177.478 121.195 176.759 122.877 175.455 124.136C174.15 125.395 172.423 126.457 170.59 126.431C169.136 126.41 167.649 125.609 166.487 124.741C165.362 123.9 163.905 121.6 163.662 121.07C163.42 120.539 163.305 121.376 163.376 121.6C163.843 123.081 164.798 124.417 166.065 125.364C167.376 126.344 168.936 126.874 170.577 126.897C172.645 126.926 174.592 126.161 176.063 124.741C177.534 123.321 178.344 121.424 178.344 119.401C178.344 117.006 177.161 114.736 175.179 113.328C174.696 112.985 174.326 112.527 174.11 112.005L173.62 110.819C174.023 110.565 174.291 110.122 174.291 109.619C174.291 108.909 173.756 108.318 173.061 108.212C172.918 107.213 172.13 106.415 171.124 106.234L171.069 106.234L170.404 91.6426C170.365 86.0886 170.884 74.9876 170.884 74.9876C170.893 70.7186 170.946 66.9759 171.041 63.7596L171.073 62.744ZM172.77 117.821C172.435 117.821 172.162 117.554 172.162 117.225V116.302C172.162 116.302 173.48 116.566 173.48 117.225C173.48 117.831 173.25 117.827 172.953 117.822L172.953 117.822C172.926 117.822 172.899 117.821 172.872 117.821H172.77ZM167.57 117.225C167.627 118.055 169.348 118.417 169.22 117.225V116.302C169.22 116.302 167.514 116.395 167.57 117.225ZM169.205 108.195C169.364 107.535 169.97 107.043 170.691 107.043C171.412 107.043 172.018 107.535 172.177 108.195H169.205ZM172.836 109.044H172.651H168.731H168.546C168.222 109.044 167.958 109.302 167.958 109.619C167.958 109.937 168.222 110.195 168.546 110.195H172.836C173.16 110.195 173.424 109.937 173.424 109.619C173.424 109.302 173.16 109.044 172.836 109.044ZM180.262 112.739H181.019C181.233 112.739 181.406 112.568 181.406 112.356C181.406 112.145 181.233 111.974 181.019 111.974H180.262C180.048 111.974 179.875 112.145 179.875 112.356C179.875 112.568 180.048 112.739 180.262 112.739ZM179.66 115.448L180.389 115.755C180.594 115.841 180.694 116.086 180.611 116.302C180.529 116.517 180.296 116.622 180.09 116.535L179.361 116.229C179.156 116.142 179.056 115.897 179.139 115.682C179.201 115.518 179.352 115.418 179.511 115.418C179.56 115.418 179.611 115.428 179.66 115.448ZM179.01 109.208L179.692 108.66C179.885 108.506 179.933 108.199 179.8 107.976C179.717 107.838 179.585 107.764 179.451 107.764C179.368 107.764 179.283 107.793 179.21 107.852L178.527 108.4C178.335 108.554 178.287 108.86 178.42 109.083C178.553 109.306 178.817 109.362 179.01 109.208ZM160.738 112.739H159.98C159.767 112.739 159.594 112.568 159.594 112.356C159.594 112.145 159.767 111.974 159.98 111.974H160.738C160.951 111.974 161.124 112.145 161.124 112.356C161.124 112.568 160.951 112.739 160.738 112.739ZM161.34 115.448L160.611 115.755C160.405 115.841 160.306 116.086 160.388 116.302C160.47 116.517 160.704 116.622 160.909 116.535L161.638 116.229C161.844 116.142 161.943 115.897 161.861 115.682C161.798 115.518 161.648 115.418 161.489 115.418C161.439 115.418 161.389 115.428 161.34 115.448ZM161.99 109.208L161.307 108.66C161.115 108.506 161.067 108.199 161.2 107.976C161.282 107.838 161.414 107.764 161.549 107.764C161.632 107.764 161.716 107.793 161.79 107.852L162.472 108.4C162.665 108.554 162.713 108.86 162.58 109.083C162.446 109.306 162.182 109.362 161.99 109.208Z" fill="#FFB61D"/>
<path d="M114.542 169.596C118.763 170.707 120.929 173.351 122.758 175.814C124.591 178.276 120.562 177.104 118.339 176.215C116.115 175.327 110.762 172.04 110.762 172.04L93.0137 166.672V158.463L98.3213 158.153C98.3213 158.153 110.318 168.485 114.542 169.596Z" fill="white"/>
<path d="M96.1519 109.475C99.948 123.842 101.907 137.588 102.217 150.775C102.217 150.775 105.772 151.22 105.328 154.33C104.884 157.441 95.5512 165.884 95.5512 165.884L92.3176 155.166L91.1084 115.67L96.1519 109.475Z" fill="white"/>
<path fill-rule="evenodd" clip-rule="evenodd" d="M97.4474 116.828L95.2676 115.382C95.1284 115.29 94.9447 115.361 94.8946 115.528L94.1345 118.052C94.0712 118.262 94.2603 118.459 94.4564 118.388L97.3962 117.309C97.5967 117.235 97.6273 116.947 97.4474 116.828ZM97.1834 117.245L94.5047 118.02L95.3021 115.724L97.1834 117.245Z" fill="#FFB61D"/>
<path fill-rule="evenodd" clip-rule="evenodd" d="M96.4903 135.004L94.3106 133.559C94.1713 133.466 93.9877 133.538 93.9376 133.704L93.1775 136.229C93.1142 136.439 93.3033 136.636 93.4993 136.564L96.4392 135.486C96.6396 135.412 96.6703 135.124 96.4903 135.004ZM96.2264 135.422L93.5477 136.197L94.3451 133.901L96.2264 135.422Z" fill="#FFB61D"/>
<path fill-rule="evenodd" clip-rule="evenodd" d="M95.3442 145.216L95.5065 142.606C95.5168 142.439 95.3629 142.316 95.1938 142.356L92.6275 142.959C92.4138 143.01 92.3377 143.272 92.498 143.406L94.9021 145.413C95.0659 145.549 95.3308 145.432 95.3442 145.216ZM94.8508 145.196L92.8405 143.264L95.2276 142.807L94.8508 145.196Z" fill="#FFB61D"/>
<path fill-rule="evenodd" clip-rule="evenodd" d="M99.4757 143.29L96.8651 143.128C96.6983 143.118 96.5752 143.272 96.6149 143.441L97.2189 146.007C97.2692 146.221 97.5315 146.297 97.6653 146.137L99.672 143.732C99.8088 143.569 99.6912 143.304 99.4757 143.29ZM99.4558 143.784L97.5234 145.794L97.0659 143.407L99.4558 143.784Z" fill="#FFB61D"/>
<path fill-rule="evenodd" clip-rule="evenodd" d="M97.46 156.599L95.118 157.763C94.9685 157.838 94.9388 158.033 95.0578 158.159L96.864 160.08C97.0144 160.24 97.2796 160.174 97.3153 159.969L97.8511 156.883C97.8876 156.673 97.6534 156.502 97.46 156.599ZM97.6895 157.036L97.0212 159.743L95.4315 157.904L97.6895 157.036Z" fill="#FFB61D"/>
<path fill-rule="evenodd" clip-rule="evenodd" d="M98.6085 149.328L96.2665 150.493C96.1169 150.567 96.0872 150.762 96.2062 150.888L98.0124 152.809C98.1628 152.969 98.428 152.904 98.4637 152.698L98.9995 149.613C99.0361 149.402 98.8018 149.232 98.6085 149.328ZM98.8379 149.765L98.1696 152.472L96.5799 150.634L98.8379 149.765Z" fill="#FFB61D"/>
<path d="M83.425 118.114L80.8498 125.889C74.9633 143.694 72.0647 152.731 71.9776 153.579C71.9235 154.105 72.2427 154.498 72.7349 154.632C73.0307 154.712 73.3924 154.708 73.8417 154.641C74.5407 154.538 75.4753 154.276 76.6037 153.886C77.476 153.585 78.4186 153.223 79.3734 152.832L79.7751 152.666C79.9056 152.612 80.0325 152.559 80.1554 152.506L80.7934 152.231L80.9756 152.151L81.0815 151.982C81.2696 151.683 81.5376 151.153 81.8019 150.427C82.0342 149.789 82.2193 149.106 82.3411 148.384L82.3837 148.112C82.4216 147.847 82.7855 147.233 83.5359 146.186L84.0589 145.47C84.4879 144.891 85.3132 143.787 85.3962 143.675L85.8816 143.018C86.3454 142.386 86.7503 141.821 87.1458 141.251C89.1301 138.394 90.5322 135.894 91.3594 133.488C92.0611 131.447 92.3071 129.555 92.0293 127.817C91.6038 125.163 91.7668 122.627 92.3879 120.247C92.9039 118.269 91.2717 116.445 88.9186 115.774C86.4873 115.081 84.1708 115.866 83.425 118.114Z" fill="white"/>
<path d="M87.7353 106.618C89.1696 108.14 90.373 109.301 91.3457 110.1C92.984 111.447 95.3325 112.89 98.3913 114.43C89.0351 116.596 83.322 117.025 81.252 115.715C81.252 115.715 82.1142 111.658 83.353 109.92C84.2753 108.625 87.7353 106.618 87.7353 106.618Z" fill="white"/>
<path d="M102.618 87.0591C100.674 94.4422 95.3629 102.15 89.7071 100.662C84.0513 99.1728 80.9211 89.0814 82.865 81.6983C84.809 74.3151 90.9699 69.5368 96.6257 71.0253C102.282 72.5139 104.562 79.6763 102.618 87.0591Z" fill="white"/>
<path d="M103.912 89.4137C101.712 97.8631 95.7011 106.684 89.3005 104.981C82.8998 103.277 79.3574 91.7281 81.5573 83.2788C83.7573 74.8294 90.7296 69.361 97.1302 71.0646C103.531 72.7681 106.112 80.9648 103.912 89.4137Z" fill="white"/>
<path fill-rule="evenodd" clip-rule="evenodd" d="M93.6973 72.0364C98.0589 72.2841 101.242 73.717 103.026 76.2419L103.228 76.5339C104.11 77.8075 104.852 78.609 105.177 81.0196L105.208 81.2759C105.393 82.8617 105.448 84.5346 105.352 85.0898C105.301 85.3243 105.2 85.4062 105.073 85.3814C104.785 85.325 104.039 83.9984 102.834 81.4016L101.823 82.585C101.273 83.2206 100.106 83.8197 99.4144 84.27C98.7229 84.7203 93.6973 72.0364 93.6973 72.0364Z" fill="#E7EAEE"/>
<path fill-rule="evenodd" clip-rule="evenodd" d="M98.101 96.0207C100.53 97.0336 102.375 98.3492 102.864 97.8021C103.353 97.2549 101.685 95.5888 100.389 93.3258C99.0316 91.0755 97.7426 88.2408 97.5017 87.0876L96.8848 84.1727C95.0801 86.45 93.3904 94.091 98.101 96.0207Z" fill="white"/>
<path d="M126.338 235.163L126.206 243.268H121.596L120.215 233.968L126.338 235.163Z" fill="white"/>
<path d="M75.846 192.061C75.846 192.061 105.76 191.401 115.164 190.044C125.603 188.539 131.312 184.98 133.582 185.401C134.646 185.598 140.925 186.711 154.027 188.104C159.568 188.693 173.952 188.784 173.952 188.784L179.535 176.902C179.535 176.902 140.249 169.014 127.828 172.428C123.921 173.502 115.461 175.051 105.402 174.485C96.7033 173.996 73.046 169.401 73.046 169.401C73.046 169.401 63.4942 172.83 65.2232 181.262C66.9522 189.694 75.846 192.061 75.846 192.061Z" fill="white"/>
<path fill-rule="evenodd" clip-rule="evenodd" d="M176.334 181.986L178.173 176.661C178.173 176.661 138.953 169.345 126.532 172.759C122.625 173.833 119.095 175.603 109.036 175.037C105.185 174.821 98.6008 173.919 89.2836 172.334C84.5704 171.531 83.8133 171.828 87.5176 174.251C96.1077 179.868 115.216 178.544 132.552 176.013C164.774 171.308 176.334 181.986 176.334 181.986Z" fill="#E7EAEE"/>
<path d="M121.133 237.003C119.182 239.16 116.595 242.711 117.926 246.266L141.036 253.376C141.036 253.376 141.924 250.708 140.592 248.489C139.256 246.266 126.648 237.494 126.648 237.494L121.133 237.003Z" fill="white"/>
<path fill-rule="evenodd" clip-rule="evenodd" d="M131.8 241.819C131.953 241.777 132.11 241.868 132.152 242.021C132.193 242.174 132.103 242.331 131.95 242.373C131.197 242.577 130.701 243.052 130.527 243.655C130.301 244.433 130.277 245.229 130.533 246.504C130.564 246.659 130.463 246.811 130.308 246.842C130.152 246.873 130.001 246.772 129.97 246.617C129.696 245.254 129.724 244.364 129.975 243.495C130.206 242.698 130.856 242.075 131.8 241.819Z" fill="#E7EAEE"/>
<path fill-rule="evenodd" clip-rule="evenodd" d="M119.074 246.648L141.809 253.338C141.809 253.338 144.696 252.731 141.711 252.306C138.643 251.871 120.684 243.647 118.708 245.145C118.427 245.358 118.9 246.184 119.074 246.648Z" fill="#E7EAEE"/>
<path d="M62.4262 190.365C62.4262 190.365 72.6849 193.603 80.9458 194.817C89.2068 196.031 105.685 196.722 105.685 196.722C105.685 196.722 110.829 199.518 111.161 200.813C111.29 201.318 112.07 207.984 114.225 216.499C115.239 220.504 120.657 238.618 120.657 238.618L127.828 235.444C127.828 235.444 127.54 202.151 122.963 191.108C118.385 180.066 71.3314 169.341 71.3314 169.341C71.3314 169.341 61.345 167.535 58.6263 175.702C55.9077 183.868 62.4262 190.365 62.4262 190.365Z" fill="white"/>
<path fill-rule="evenodd" clip-rule="evenodd" d="M121.805 237.47L128.976 234.296C128.784 212.1 127.162 197.322 124.11 189.96C124.11 189.96 127.229 229.15 121.805 237.47Z" fill="#E7EAEE"/>
<path d="M184.337 182.423C186.122 184.719 189.17 187.883 192.902 187.189L203.917 165.665C203.917 165.665 201.083 164.412 198.666 165.338C196.244 166.267 185.597 177.378 185.597 177.378L184.337 182.423Z" fill="white"/>
<path fill-rule="evenodd" clip-rule="evenodd" d="M136.495 245.641C136.609 245.531 136.791 245.535 136.901 245.649C137.01 245.764 137.006 245.946 136.892 246.055C136.225 246.694 136.101 247.765 136.484 248.411C136.565 248.548 136.519 248.724 136.383 248.804C136.247 248.885 136.071 248.84 135.99 248.704C135.474 247.832 135.632 246.468 136.495 245.641Z" fill="#E7EAEE"/>
<path fill-rule="evenodd" clip-rule="evenodd" d="M134.15 243.748C134.266 243.64 134.448 243.645 134.556 243.761C134.665 243.877 134.659 244.058 134.543 244.167L134.388 244.316C133.181 245.504 132.835 246.542 133.898 247.656C134.007 247.771 134.003 247.952 133.888 248.062C133.774 248.171 133.592 248.167 133.483 248.052C132.697 247.229 132.536 246.34 132.884 245.45C133.124 244.836 133.541 244.321 134.15 243.748Z" fill="#E7EAEE"/>
<path fill-rule="evenodd" clip-rule="evenodd" d="M123.104 243.372C123.763 244.632 127.261 244.115 126.652 240.632C126.364 238.984 121.28 239.885 123.104 243.372Z" fill="#E7EAEE"/>
<path fill-rule="evenodd" clip-rule="evenodd" d="M190.719 187.589C195.341 182.307 197.997 170.428 201.804 166.341C203.147 164.898 204.89 164.574 203.014 167.99C199.582 174.24 192.986 187.589 192.986 187.589C192.637 187.764 192.205 187.589 191.815 187.589H190.719Z" fill="#E7EAEE"/>
<path d="M114.542 169.596C118.763 170.707 120.929 173.351 122.758 175.814C124.591 178.276 120.562 177.104 118.339 176.215C116.115 175.327 111.862 171.954 111.862 171.954L114.542 169.596Z" fill="white"/>
<path d="M76.0955 159.598C76.0955 159.598 99.8552 169.805 103.204 169.818C106.548 169.832 114.756 173.818 115.2 176.928C115.74 180.713 101.424 175.151 101.424 175.151C101.424 175.151 69.4294 175.151 64.0989 169.818C58.7649 164.486 62.3195 153.377 62.3195 153.377L76.0955 159.598Z" fill="white"/>
<path d="M70.3172 112.051C70.3172 112.051 76.0954 115.605 76.9832 127.159C77.871 138.712 74.316 152.488 74.316 152.488C74.316 152.488 76.5393 154.266 76.9832 156.043C77.4271 157.821 76.0763 160.167 76.0763 160.167C76.0763 160.167 62.7641 166.708 61.8752 167.152C60.9866 167.597 57.4316 166.263 57.4316 162.708C57.4316 159.154 58.7649 156.043 58.7649 156.043C59.4028 132.591 55.6542 109.828 70.3172 112.051Z" fill="white"/>
<path fill-rule="evenodd" clip-rule="evenodd" d="M93.8547 87.4658C95.2215 85.6356 98.1104 85.0397 98.8813 87.9291C98.8813 87.9291 99.4736 89.6725 98.2798 90.7497C94.6226 94.0497 92.4879 89.2961 93.8547 87.4658Z" fill="white"/>
<path fill-rule="evenodd" clip-rule="evenodd" d="M101.487 89.4512C102.786 87.7124 105.53 87.1463 106.263 89.8913C106.263 89.8913 106.825 91.5475 105.691 92.5708C102.217 95.7059 100.189 91.1899 101.487 89.4512Z" fill="white"/>
<path d="M90.8552 111.707C90.8552 111.707 90.8552 133.068 91.169 145.004C91.4828 156.941 88.7467 168.702 83.5195 177.899C78.2922 187.097 79.0037 200.254 75.1505 201.232C44.6731 208.968 52.8787 114.301 64.1554 108.252C75.4321 102.203 79.1571 100.921 79.1571 100.921" fill="white"/>
<path fill-rule="evenodd" clip-rule="evenodd" d="M75.2249 117.701L72.5984 121.622C72.3806 121.947 72.5451 122.39 72.9224 122.495L76.4271 123.464C76.8345 123.576 77.2198 123.225 77.1451 122.809L76.2668 117.919C76.1755 117.41 75.5122 117.272 75.2249 117.701ZM75.7957 118.304L76.5801 122.911L73.5324 121.622L75.7957 118.304Z" fill="#FFB61D"/>
<path fill-rule="evenodd" clip-rule="evenodd" d="M66.7741 113.87L63.6789 118.839C63.4812 119.156 63.6348 119.575 63.9908 119.689L69.3953 121.421C69.8454 121.566 70.2672 121.135 70.1132 120.688L67.804 113.987C67.6466 113.53 67.0296 113.46 66.7741 113.87ZM67.5082 114.476L69.0894 120.688L64.4036 118.839L67.5082 114.476Z" fill="#FFB61D"/>
<path fill-rule="evenodd" clip-rule="evenodd" d="M64.867 151.46L66.9724 159.372C67.1018 159.858 67.7497 159.954 68.0149 159.527L71.1453 154.48C71.3189 154.2 71.222 153.832 70.9331 153.673L65.6972 150.808C65.2546 150.566 64.7372 150.972 64.867 151.46ZM65.4217 151.695L70.2749 154.177L67.5271 159.224L65.4217 151.695Z" fill="#FFB61D"/>
<path fill-rule="evenodd" clip-rule="evenodd" d="M60.6505 180.513L61.7985 185.937C61.9038 186.435 62.5565 186.56 62.8381 186.136L65.9395 181.47C66.1683 181.125 65.9692 180.659 65.5622 180.587L61.3128 179.829C60.9119 179.758 60.5662 180.115 60.6505 180.513ZM61.6521 180.428L65.3348 181.733L62.1571 185.362L61.6521 180.428Z" fill="#FFB61D"/>
<path fill-rule="evenodd" clip-rule="evenodd" d="M70.6007 179.365L71.7487 184.789C71.854 185.287 72.5067 185.412 72.7883 184.988L75.8897 180.322C76.1185 179.978 75.9194 179.512 75.5124 179.439L71.263 178.682C70.8621 178.61 70.5164 178.967 70.6007 179.365ZM71.1319 179.837L75.4194 179.719L71.8912 184.252L71.1319 179.837Z" fill="#FFB61D"/>
<path fill-rule="evenodd" clip-rule="evenodd" d="M65.2432 168.268L66.3912 173.692C66.4966 174.189 67.1493 174.314 67.4308 173.891L70.5323 169.224C70.7611 168.88 70.562 168.414 70.155 168.342L65.9055 167.584C65.5047 167.513 65.1589 167.87 65.2432 168.268ZM65.8048 168.149L69.6716 169.289L66.5701 173.19L65.8048 168.149Z" fill="#FFB61D"/>
<path fill-rule="evenodd" clip-rule="evenodd" d="M192.31 185.819C192.022 186.382 191.549 186.618 190.918 186.653C188.671 186.778 186.89 185.786 185.3 184.342C184.698 183.794 184.163 183.172 183.56 182.626C183.135 182.242 182.68 181.992 182.017 182.229C181.509 182.411 180.914 182.343 180.359 182.399C179.107 182.527 177.859 182.694 176.605 182.785C175.805 182.843 175.786 183.525 175.598 183.995C175.174 185.06 174.857 186.168 174.519 187.265C174.388 187.692 174.18 187.86 173.701 187.854C171.311 187.825 168.92 187.827 166.529 187.847C165.441 187.856 164.351 187.986 163.264 187.961C161.219 187.915 159.172 187.849 157.133 187.693C155.161 187.541 153.199 187.257 151.231 187.047C149.849 186.9 148.458 186.822 147.082 186.635C145.481 186.417 143.893 186.101 142.296 185.855C141.497 185.733 140.684 185.696 139.884 185.578C138.512 185.377 137.14 185.167 135.777 184.913C134.512 184.677 133.322 184.921 132.132 185.314C129.814 186.08 127.49 186.827 125.165 187.571C124.751 187.703 124.629 187.812 124.815 188.314C125.5 190.157 126.142 192.02 126.699 193.905C127.093 195.235 127.365 196.606 127.618 197.972C127.927 199.646 128.186 201.33 128.416 203.017C128.592 204.306 128.704 205.604 128.82 206.9C128.967 208.548 129.106 210.196 129.217 211.846C129.328 213.49 129.42 215.135 129.483 216.781C129.589 219.575 129.668 222.371 129.752 225.167C129.803 226.859 129.835 228.552 129.89 230.245C129.906 230.736 130.064 231.24 129.989 231.712C129.933 232.068 129.68 232.566 129.39 232.677C128.643 232.965 128.427 233.521 128.434 234.286C128.442 235.264 128.565 236.242 128.539 237.218C128.523 237.839 128.761 238.273 129.213 238.603C131.266 240.101 133.341 241.571 135.393 243.071C136.368 243.783 137.329 244.515 138.262 245.279C139.262 246.097 140.243 246.941 141.196 247.813C142.146 248.682 142.651 249.744 142.812 251.069C142.936 252.096 142.804 253.05 142.633 254.028C142.544 254.537 142.253 254.745 141.724 254.572C139.5 253.847 137.281 253.108 135.047 252.416C131.357 251.274 127.657 250.165 123.96 249.043C122.643 248.643 121.325 248.244 120.006 247.849C119.198 247.607 119.028 246.882 118.877 246.226C118.451 244.361 119.002 242.663 119.986 241.099C120.588 240.142 121.289 239.247 121.948 238.325C122.485 237.572 122.347 236.801 122.081 235.986C121.214 233.334 120.362 230.677 119.543 228.01C118.734 225.377 117.933 222.741 117.2 220.086C116.426 217.281 115.723 214.455 115.015 211.631C114.632 210.104 114.271 208.569 113.961 207.025C113.729 205.87 113.598 204.696 113.415 203.531C113.198 202.14 113.067 200.725 112.709 199.37C112.554 198.787 111.989 198.254 111.495 197.832C110.421 196.912 109.187 196.226 107.847 195.758C107.515 195.642 107.156 195.562 106.807 195.549C105.144 195.486 103.479 195.47 101.816 195.403C100.191 195.338 98.5674 195.247 96.9454 195.138C95.2725 195.025 93.6008 194.891 91.9308 194.741C90.1433 194.58 88.3495 194.452 86.5749 194.196C84.6937 193.924 82.8296 193.53 80.9628 193.164C80.3556 193.046 79.9121 193.414 79.818 194.27C79.6121 196.142 78.9762 197.881 78.2208 199.584C77.6761 200.812 76.6483 201.426 75.3803 201.636C74.4753 201.785 73.5481 201.928 72.6376 201.894C70.0465 201.796 67.7356 200.941 65.6801 199.297C63.073 197.213 61.5476 194.428 60.2489 191.459C59.6669 190.128 58.9177 188.858 58.4609 187.489C57.9647 186.001 57.7137 184.431 57.3682 182.894C57.0994 181.698 56.8251 180.503 56.5989 179.298C56.4201 178.346 56.3075 177.381 56.1716 176.42C55.9911 175.145 55.8131 173.868 55.6414 172.591C55.5847 172.169 55.5286 171.744 55.5108 171.319C55.4552 169.988 55.4279 168.656 55.3715 167.325C55.2923 165.459 55.1445 163.594 55.1198 161.727C55.0776 158.534 55.082 155.339 55.1203 152.146C55.1371 150.744 55.2557 149.341 55.3817 147.942C55.5249 146.353 55.7421 144.771 55.9004 143.183C56.0134 142.05 56.0487 140.908 56.1787 139.777C56.3693 138.117 56.5785 136.458 56.8439 134.809C57.1596 132.847 57.5206 130.892 57.9023 128.942C58.6245 125.252 59.4647 121.585 60.8403 118.079C61.7167 115.846 62.6313 113.567 64.4202 111.881C65.1946 111.151 66.2706 110.73 67.2327 110.212C69.8736 108.791 72.5283 107.395 75.17 105.975C75.2935 105.908 75.3995 105.715 75.4198 105.568C75.4898 105.059 75.4587 104.529 75.5837 104.037C75.6652 103.716 75.8901 103.365 76.1559 103.171C77.0471 102.521 77.9808 101.928 78.9102 101.332C79.0765 101.226 79.312 101.132 79.4948 101.162C80.4746 101.32 80.9661 100.717 81.302 99.975C81.7568 98.9704 82.1719 97.9428 82.5247 96.8982C83.1091 95.1683 83.6984 93.434 84.1405 91.6652C84.2931 91.0551 84.0584 90.3273 83.9206 89.67C83.6402 88.3323 83.4076 86.9702 82.9562 85.6882C82.6676 84.8685 82.0837 84.125 81.5256 83.4333C80.0827 81.645 79.3248 79.6419 79.5674 77.3469C79.6728 76.3505 80.1002 75.4218 80.8456 74.6978C81.7228 73.8458 82.6221 73.0166 83.502 72.1673C84.1435 71.5482 84.0975 71.0748 83.2622 70.4696C82.0933 69.6226 80.9723 68.7074 79.854 67.793C78.8989 67.012 78.488 65.8962 78.235 64.7524C77.8909 63.1963 77.8496 61.6265 78.4842 60.1077C79.4993 57.6786 80.962 55.6739 83.6396 54.9181C85.9995 54.2519 88.3538 54.2971 90.4717 55.6348C92.3961 56.8504 93.6184 58.6609 94.1561 60.8955C94.787 63.5179 94.0688 65.8778 92.7435 68.1225C92.6324 68.3105 92.6211 68.5573 92.5635 68.7768C92.7605 68.8141 92.9565 68.8758 93.1548 68.8848C95.7038 69.0009 98.2374 69.2839 100.52 70.4989C103.517 72.0936 105.402 74.6211 106.233 77.9107C106.357 78.4032 106.356 78.9325 106.372 79.4461C106.428 81.1974 106.433 82.9512 106.536 84.6994C106.558 85.0643 106.837 85.5123 107.136 85.746C108.568 86.8681 109.056 89.6158 107.723 91.2422C107.59 91.405 107.477 91.584 107.346 91.7489C106.834 92.3932 106.091 92.7059 105.352 92.5743C104.723 92.4622 104.669 92.6741 104.461 93.1389C104.018 94.1304 103.486 95.0898 102.913 96.0144C102.145 97.2537 101.361 98.4915 100.473 99.6448C99.9362 100.341 99.2115 100.902 98.5322 101.477C97.7083 102.175 96.837 102.816 95.998 103.497C95.5795 103.836 95.1207 104.011 94.5859 103.934C94.0314 103.854 93.7194 104.166 93.5571 104.615C93.2435 105.482 92.9601 106.362 92.7126 107.25C92.6605 107.438 92.771 107.711 92.8842 107.897C93.8735 109.525 94.8561 111.158 95.8897 112.759C96.7286 114.057 97.6824 115.283 98.4942 116.597C98.9962 117.41 99.3289 118.328 99.7355 119.2C100.445 120.72 101.169 122.234 101.847 123.768C101.987 124.084 102.025 124.489 101.976 124.833C101.905 125.335 101.41 125.495 100.874 125.171C100.251 124.795 99.6638 124.355 99.0804 123.917C98.7191 123.646 98.3941 123.327 98.0508 123.032C98.0111 122.998 97.9579 122.979 97.9109 122.953C97.9035 123.013 97.8825 123.075 97.8907 123.133C97.9867 123.808 98.0638 124.486 98.1928 125.155C98.3261 125.846 98.5291 126.523 98.6694 127.212C98.948 128.582 99.2173 129.954 99.4667 131.329C99.7472 132.876 100.017 134.425 100.261 135.978C100.386 136.776 100.428 137.587 100.536 138.389C100.699 139.601 100.904 140.807 101.057 142.02C101.14 142.683 101.159 143.354 101.195 144.022C101.245 144.932 101.279 145.844 101.331 146.754C101.46 149.001 101.59 151.247 101.732 153.492C101.767 154.049 102.094 154.477 102.595 154.636C104.021 155.089 105.018 156.754 104.778 158.144C104.722 158.467 104.651 158.801 104.508 159.092C104.167 159.791 104.612 160.188 105.055 160.551C105.773 161.142 106.522 161.696 107.272 162.246C109.053 163.551 110.846 164.84 112.627 166.145C114.241 167.328 116.021 168.15 117.932 168.733C119.465 169.201 120.77 170.087 121.996 171.11C122.598 171.612 123.12 172.355 124.074 172.172C125.424 171.912 126.77 171.631 128.117 171.353C128.522 171.269 128.921 171.147 129.329 171.077C130.75 170.832 131.589 169.827 132.425 168.787C133.047 168.013 133.741 167.297 134.388 166.543C135.662 165.06 136.922 163.565 138.195 162.081C138.828 161.343 139.479 160.621 140.118 159.889C141.919 157.825 143.71 155.752 145.522 153.699C146.472 152.622 147.462 151.58 148.428 150.519C148.688 150.233 148.967 149.954 149.173 149.631C149.486 149.14 149.805 148.989 150.416 149.187C151.753 149.62 151.729 149.537 150.794 150.563C149.121 152.399 147.502 154.286 145.854 156.145C145.048 157.055 144.216 157.94 143.416 158.855C142.014 160.46 140.633 162.084 139.233 163.692C138.24 164.833 137.234 165.964 136.229 167.095C135.451 167.97 134.662 168.835 133.886 169.712C133.819 169.788 133.765 170.001 133.789 170.016C133.979 170.134 134.192 170.31 134.392 170.302C136.016 170.239 137.639 170.115 139.263 170.059C140.479 170.018 141.699 170.017 142.915 170.059C144.473 170.113 146.034 170.18 147.585 170.329C149.314 170.495 151.033 170.761 152.757 170.98C154.524 171.204 156.297 171.388 158.058 171.654C159.818 171.919 161.563 172.277 163.319 172.569C164.774 172.811 166.239 172.991 167.691 173.244C169.543 173.566 171.386 173.941 173.236 174.281C174.534 174.519 175.838 174.727 177.136 174.966C178.388 175.196 179.634 175.463 180.887 175.685C181.677 175.825 182.474 175.967 183.272 176C183.607 176.014 184.033 175.832 184.281 175.596C186.18 173.789 188.02 171.922 189.927 170.125C192.061 168.114 194.293 166.215 196.7 164.527C197.801 163.755 199.034 163.89 200.233 163.994C200.933 164.054 201.609 164.391 202.294 164.609C202.856 164.787 202.906 165.134 202.656 165.625C201.52 167.853 200.405 170.092 199.269 172.32C198.288 174.246 197.288 176.162 196.263 178.116C194.924 180.706 193.619 183.264 192.31 185.819ZM87.2359 169.386C87.8328 167.66 88.3567 165.905 88.8274 164.14C89.1332 162.994 89.3066 161.81 89.5031 160.637C89.705 159.431 89.8738 158.22 90.037 157.008C90.2265 155.601 90.5214 154.193 90.5443 152.782C90.5903 149.948 90.4731 147.112 90.4419 144.277C90.4228 142.544 90.4127 140.81 90.4465 139.078C90.4732 137.715 89.6803 136.7 89.1025 135.582C88.7178 134.838 88.3118 134.087 88.0661 133.293C87.6154 131.836 87.2489 130.351 86.8996 128.865C86.6608 127.849 86.4848 126.816 86.3277 125.784C86.146 124.589 85.7531 123.467 85.2432 122.383C85.2005 122.292 84.8421 122.226 84.8037 122.277C84.5982 122.552 84.445 122.867 84.279 123.171C83.9836 123.712 83.5347 124.227 83.4321 124.803C83.2271 125.955 82.6966 126.943 82.1542 127.93C81.8166 128.545 81.2482 128.561 80.8533 127.997C80.4288 127.39 79.9704 126.778 79.6995 126.1C79.0627 124.504 78.4925 122.88 77.9622 121.245C77.2654 119.097 76.6082 116.935 75.9826 114.766C75.656 113.633 75.3305 112.482 75.1933 111.317C75.0589 110.175 75.1653 109.005 75.1618 107.847C75.1615 107.744 75.1298 107.64 75.1127 107.537C75.0658 107.573 75.0229 107.618 74.9713 107.646C73.7578 108.314 72.5518 108.996 71.3267 109.641C70.1116 110.281 68.8907 110.914 67.6474 111.496C66.2851 112.135 64.9178 112.794 64.1287 114.132C63.275 115.58 62.2773 116.959 61.763 118.591C61.2328 120.273 60.6331 121.936 60.1716 123.637C59.6996 125.377 59.3783 127.156 58.9528 128.909C58.6811 130.029 58.2334 131.115 58.0551 132.246C57.7831 133.972 57.615 135.72 57.5175 137.465C57.4339 138.963 57.4403 140.464 57.2381 141.956C57.0812 143.115 56.9746 144.28 56.8332 145.44C56.618 147.208 56.2312 148.971 56.2036 150.74C56.1424 154.658 56.3037 158.578 56.2854 162.497C56.2759 164.551 56.5822 166.559 56.824 168.583C57.0926 170.83 57.2516 173.091 57.508 175.34C57.6822 176.868 57.8564 178.406 58.1824 179.906C58.7132 182.349 59.2834 184.789 59.9921 187.185C60.8763 190.174 62.1746 192.99 64.0026 195.544C65.145 197.14 66.5394 198.447 68.2609 199.387C70.5947 200.661 73.0976 200.551 75.6052 200.162C76.0165 200.098 76.5486 199.782 76.7247 199.431C77.2183 198.449 77.6495 197.414 77.9306 196.353C78.3298 194.846 78.5063 193.281 78.8981 191.771C79.544 189.282 80.3567 186.835 80.9654 184.338C81.4667 182.281 82.4221 180.425 83.2523 178.512C83.8631 177.105 84.5856 175.746 85.3248 174.299C85.9667 172.663 86.6621 171.046 87.2359 169.386ZM109.265 194.794C110.473 195.532 111.657 196.315 112.806 197.141C113.523 197.657 114.039 198.407 114.196 199.274C114.56 201.282 114.801 203.311 115.154 205.321C115.401 206.732 115.756 208.124 116.05 209.526C116.289 210.668 116.51 211.814 116.736 212.959C116.959 214.083 117.176 215.209 117.402 216.333C117.574 217.19 117.752 218.046 117.933 218.901C118.226 220.283 118.459 221.682 118.838 223.041C119.211 224.379 119.772 225.664 120.181 226.994C120.863 229.206 121.708 231.348 122.688 233.446C122.92 233.943 123.31 233.843 123.542 233.752C125.007 233.178 126.453 232.552 127.889 231.907C128.342 231.704 128.583 231.31 128.562 230.771C128.505 229.308 128.466 227.844 128.426 226.38C128.378 224.629 128.337 222.877 128.292 221.126C128.248 219.411 128.239 217.695 128.149 215.983C128.062 214.31 127.898 212.641 127.76 210.971C127.587 208.891 127.427 206.809 127.223 204.732C127.082 203.297 126.952 201.854 126.681 200.442C126.211 197.995 125.635 195.57 125.105 193.135C124.487 190.297 123.295 187.825 120.937 185.968C119.141 184.553 117.257 183.291 115.22 182.282C112.966 181.165 110.688 180.078 108.349 179.161C105.675 178.112 103.077 176.787 100.133 176.546C98.7189 176.43 97.3158 176.182 95.9035 176.032C94.7707 175.911 93.6285 175.877 92.4962 175.753C90.704 175.557 88.9187 175.296 87.1248 175.12C86.8732 175.095 86.4945 175.332 86.3401 175.559C85.9856 176.082 85.7187 176.667 85.4419 177.24C84.5774 179.027 83.5648 180.763 82.9071 182.625C82.0381 185.084 81.4483 187.642 80.7435 190.159C80.3442 191.585 80.3356 191.649 81.579 191.91C83.0175 192.211 84.479 192.411 85.9365 192.612C86.8899 192.743 87.8559 192.779 88.8126 192.889C90.6257 193.098 92.4342 193.347 94.2485 193.543C95.403 193.667 96.5636 193.742 97.7231 193.811C99.4561 193.914 101.19 194.01 102.925 194.073C103.963 194.111 105.005 194.08 106.178 194.08C107.267 194.06 108.331 194.223 109.265 194.794ZM161.319 186.512C162.437 186.564 163.555 186.619 164.673 186.642C167.266 186.697 169.859 186.741 172.452 186.773C172.969 186.779 173.435 186.565 173.575 186.032C174.326 183.164 175.804 180.504 175.994 177.47C176.042 176.7 175.708 176.157 174.922 176.019C174.103 175.876 173.294 175.675 172.476 175.519C171.448 175.323 170.416 175.151 169.387 174.962C168.463 174.792 167.539 174.616 166.617 174.437C165.942 174.307 165.269 174.163 164.593 174.035C163.299 173.791 162.005 173.551 160.71 173.314C159.824 173.152 158.939 172.985 158.051 172.843C157.362 172.732 156.666 172.662 155.975 172.562C154.516 172.349 153.057 172.128 151.599 171.909C150.765 171.785 149.934 171.648 149.099 171.535C147.986 171.385 146.869 171.131 145.755 171.137C142.959 171.153 140.162 171.276 137.367 171.385C136.031 171.437 134.691 171.512 133.363 171.661C132.62 171.745 131.904 171.981 131.365 172.607C130.487 173.628 129.543 174.592 128.656 175.605C128.095 176.245 127.571 176.918 127.058 177.597C126.381 178.496 125.554 179.042 124.373 178.95C122.437 178.801 120.499 178.691 118.564 178.542C117.845 178.487 117.13 178.38 116.416 178.28C115.205 178.111 113.998 177.914 112.785 177.755C111.625 177.603 110.462 177.477 109.299 177.358C108.97 177.324 108.635 177.343 108.304 177.361C108.238 177.365 108.178 177.478 108.115 177.54C108.183 177.571 108.252 177.6 108.318 177.634C108.9 177.938 109.467 178.276 110.067 178.541C111.824 179.318 113.637 179.981 115.351 180.843C117.839 182.095 120.162 183.623 122.273 185.46C122.928 186.03 123.556 186.453 124.629 186.31C126.331 186.084 127.922 185.664 129.449 184.921C131.504 183.921 133.595 183.1 135.958 183.59C137.326 183.874 138.701 184.122 140.066 184.415C140.931 184.601 141.775 184.906 142.647 185.036C143.728 185.196 144.828 185.224 145.92 185.319C147.905 185.492 149.889 185.676 151.874 185.848C153.222 185.965 154.57 186.071 155.985 186.248C157.763 186.336 159.541 186.429 161.319 186.512ZM92.159 148.158C92.1786 148.688 92.1574 149.219 92.1663 149.75C92.2077 152.232 92.2466 154.713 92.3022 157.195C92.3183 157.915 92.2867 158.657 92.4516 159.348C92.7856 160.746 93.2237 162.12 93.6504 163.494C93.8331 164.083 94.0872 164.643 94.7525 164.876C95.3313 165.079 95.8918 165.334 96.4717 165.533C97.3322 165.828 97.596 165.717 98.1572 164.929C98.3428 164.669 98.5569 164.428 98.7655 164.185C100.11 162.617 101.495 161.082 102.79 159.475C103.745 158.288 103.58 156.379 101.979 155.766C101.807 155.7 101.637 155.621 101.458 155.584C100.512 155.388 100.556 155.39 100.525 154.497C100.412 151.304 100.787 148.103 100.285 144.914C100.085 143.641 100.168 142.324 99.9835 141.047C99.6971 139.061 99.3005 137.089 98.9367 135.114C98.5926 133.245 98.2476 131.377 97.8706 129.515C97.5893 128.126 97.2512 126.748 96.9482 125.363C96.7172 124.306 96.5357 123.237 96.2567 122.194C96.1813 121.912 95.8313 121.703 95.6073 121.461C95.3453 121.714 94.8863 121.945 94.8546 122.224C94.694 123.639 94.4757 125.082 94.6001 126.487C94.743 128.1 94.985 129.699 94.6771 131.301C94.3262 133.126 93.7424 134.879 92.7533 136.476C92.2051 137.361 91.7956 138.279 91.8889 139.374C91.9812 140.458 92.0112 141.549 92.0266 142.637C92.0486 144.185 92.0322 145.734 92.0322 147.416C92.0765 147.663 92.1498 147.909 92.159 148.158ZM85.195 93.3192C85.0833 93.4922 84.9284 93.6511 84.8666 93.8404C84.2358 95.7707 83.6598 97.7198 82.9856 99.6345C82.5795 100.788 81.942 101.817 80.888 102.542C80.1223 103.069 79.4081 103.67 78.6588 104.221C78.2893 104.493 78.3673 104.729 78.5978 105.059C79.2873 106.047 80.0161 107.019 80.5916 108.072C81.3859 109.526 82.0662 111.043 82.7731 112.543C83.4619 114.005 84.1812 115.457 84.7777 116.957C85.2845 118.231 85.5571 119.599 86.0785 120.866C86.5498 122.011 87.0554 123.14 87.2262 124.366C87.2843 124.783 87.4194 124.787 87.7354 124.786C89.6348 124.779 91.4689 124.528 93.0703 123.397C93.2071 123.301 93.323 123.102 93.349 122.935C93.4118 122.532 93.4011 122.117 93.4484 121.711C93.4818 121.424 93.6688 121.114 93.6018 120.864C93.3523 119.934 93.0202 119.027 92.73 118.108C92.1757 116.352 91.4484 114.615 91.3988 112.763C91.3484 110.879 91.5179 108.986 91.647 107.1C91.6996 106.331 91.8505 105.559 92.0449 104.812C92.2731 103.935 92.2189 103.695 91.4274 103.267C90.125 102.563 89.0022 101.617 88.1995 100.396C86.8896 98.4034 85.8832 96.2593 85.524 93.7809C85.4143 93.627 85.3046 93.4731 85.195 93.3192ZM104.088 92.7313C104.125 92.6597 104.447 92.4362 103.968 92.3554C103.483 92.2738 102.937 92.0389 102.604 91.6922C101.952 91.0122 101.413 90.22 100.864 89.4473C100.709 89.2286 100.654 89.0959 100.436 89.3581C100.298 89.5245 100.118 89.6566 99.9801 89.8233C98.7819 91.2704 97.0588 91.8849 95.4454 91.4828C93.5112 91.0007 92.332 88.9385 92.3056 87.1494C92.295 86.4361 92.0695 85.8385 91.4998 85.4282C90.5518 84.7454 89.5767 84.0995 88.6022 83.4543C88.0567 83.0932 87.537 83.2113 87.3962 83.7809C87.0476 85.1911 86.6136 86.6045 86.4919 88.0402C86.3413 89.8165 86.413 91.6098 86.8371 93.3823C87.5516 96.3683 88.4792 99.2058 90.916 101.31C92.4871 102.667 94.4278 102.972 96.2984 102.151C98.1523 101.337 99.2914 99.8321 100.4 98.2655C101.331 96.9487 102.259 95.6298 103.255 94.2455C103.537 93.7428 103.829 93.2453 104.088 92.7313ZM184.376 181.418C185.664 183.058 187.162 184.426 189.213 185.088C190.479 185.497 190.943 185.425 191.643 184.089C193.073 181.364 194.486 178.63 195.895 175.894C196.458 174.801 196.978 173.686 197.542 172.594C198.643 170.46 199.758 168.334 200.874 166.209C201.078 165.821 200.884 165.469 200.584 165.429C199.543 165.29 198.444 164.993 197.477 165.636C196.201 166.484 194.918 167.338 193.745 168.317C191.965 169.802 190.251 171.369 188.563 172.959C187.798 173.68 187.151 174.53 186.471 175.338C185.933 175.977 185.243 176.515 185.039 177.387C184.849 178.194 184.663 179.002 184.475 179.942C184.254 180.423 184.008 180.949 184.376 181.418ZM140.51 252.671C140.813 252.695 141.398 252.557 141.401 252.475C141.44 251.333 141.656 250.122 140.631 249.229C139.298 248.07 138.006 246.857 136.616 245.77C134.373 244.016 132.065 242.346 129.783 240.643C128.968 240.035 128.157 239.389 127.119 239.23C126.19 239.088 125.243 239.069 124.31 238.945C123.524 238.839 122.989 239.18 122.511 239.746C121.354 241.119 120.511 242.645 120.193 244.427C119.943 245.824 120.393 246.594 121.52 246.926C123.667 247.558 125.799 248.242 127.942 248.888C129.478 249.352 131.028 249.769 132.56 250.242C134.795 250.932 137.02 251.654 139.383 252.362C139.758 252.471 140.128 252.641 140.51 252.671ZM95.419 166.596C93.9362 166.009 92.4622 165.4 90.9759 164.822C90.5368 164.651 90.163 164.601 90.0182 165.277C89.8611 166.011 89.5259 166.707 89.2837 167.424C88.7461 169.016 88.2062 170.607 87.6973 172.208C87.6032 172.504 87.46 172.919 88.0445 172.975C88.806 173.049 89.5629 173.176 90.3254 173.231C91.8142 173.34 93.3045 173.446 94.7961 173.495C97.012 173.568 99.2295 173.595 101.446 173.634C102.154 173.646 102.863 173.633 103.571 173.637C103.743 173.638 103.926 173.626 104.086 173.676C106.005 174.276 107.918 174.897 109.839 175.491C111.771 176.089 113.707 176.675 115.772 176.56C116.488 176.52 116.62 176.386 116.356 175.726C116.213 175.366 116.013 175 115.748 174.722C114.455 173.367 112.876 172.421 111.187 171.643C109.841 171.023 108.526 170.332 107.012 170.176C106.304 170.103 105.59 170.002 104.902 169.823C103.809 169.54 102.725 169.213 101.655 168.849C100.319 168.394 99.0023 167.883 97.5442 167.396C96.8355 167.13 96.1226 166.875 95.419 166.596ZM78.7439 107.99C78.1225 107.026 77.4684 106.084 76.8262 105.135C76.7369 105.003 76.6392 104.876 76.5454 104.747C76.4834 104.964 76.3962 105.178 76.364 105.4C76.2579 106.133 76.1981 106.874 76.0722 107.603C75.8229 109.046 75.6874 110.465 76.6231 111.748C76.6824 111.829 76.7289 111.927 76.7556 112.024C77.0997 113.275 77.4377 114.527 77.7808 115.778C77.8676 116.095 77.9583 116.411 78.0624 116.722C78.5099 118.062 79.0522 119.378 79.3895 120.745C79.736 122.148 80.0013 123.559 80.7208 124.842C80.9275 125.21 80.9945 125.655 81.147 126.057C81.1925 126.176 81.3426 126.369 81.3903 126.355C81.5423 126.307 81.7427 126.206 81.7937 126.076C82.3879 124.55 82.6741 122.884 83.8011 121.602C84.7583 120.514 84.5597 119.403 83.9725 118.241C83.743 117.787 83.601 117.29 83.3962 116.822C82.9533 115.812 82.5293 114.79 82.0337 113.806C81.6007 112.946 81.0762 112.132 80.5996 111.293C80.2644 110.703 79.9418 110.106 79.5471 109.446C79.2813 108.96 79.0439 108.454 78.7439 107.99ZM114.62 168.919C112.68 167.665 110.713 166.448 108.834 165.109C107.26 163.988 105.802 162.707 104.272 161.522C103.859 161.202 103.385 161.096 102.964 161.578C102.28 162.359 101.584 163.128 100.901 163.91C100.393 164.493 99.905 165.092 99.396 165.674C98.9981 166.128 99.0399 166.372 99.6223 166.546C101.494 167.106 103.379 167.621 105.245 168.198C107.792 168.987 110.336 169.788 112.86 170.646C113.668 170.921 114.38 171.476 115.186 171.754C116.005 172.037 116.881 172.185 117.744 172.305C118.741 172.444 119.751 172.499 120.757 172.562C120.917 172.572 121.087 172.428 121.253 172.356C121.154 172.22 121.08 172.054 120.955 171.952C119.36 170.646 117.455 169.973 115.475 169.254C115.188 169.145 114.872 169.082 114.62 168.919ZM89.3636 133.95C89.6103 134.886 90.1962 135.341 91.0984 135.425C91.8774 135.499 92.1062 135.071 92.2962 134.502C92.5682 133.687 92.8377 132.87 93.093 132.05C93.66 130.227 93.5789 128.39 93.2395 126.537C93.1288 125.933 93.1547 125.303 93.127 124.685C93.123 124.595 93.1687 124.503 93.1914 124.412C93.1004 124.439 93.0059 124.457 92.9188 124.493C92.3718 124.719 91.8452 125.033 91.2767 125.16C90.2116 125.4 89.1259 125.558 88.0418 125.696C87.6234 125.75 87.3755 125.794 87.5084 126.306C87.6339 126.79 87.684 127.292 87.7839 127.783C87.999 128.841 88.2247 129.897 88.446 131.086C88.756 132.04 89.1083 132.982 89.3636 133.95ZM100.714 123.964C100.817 124.051 100.932 124.125 101.042 124.205C101.041 124.057 101.082 123.893 101.033 123.763C100.745 122.998 100.477 122.222 100.126 121.486C99.3767 119.915 98.6884 118.3 97.774 116.828C96.875 115.381 95.6646 114.13 94.7097 112.713C94.0256 111.698 93.5416 110.549 92.9575 109.465C92.8677 109.298 92.7193 109.163 92.5981 109.014C92.5423 109.189 92.4347 109.367 92.439 109.541C92.467 110.673 92.4816 111.807 92.5765 112.934C92.6412 113.703 92.7709 114.477 92.9775 115.22C93.2069 116.044 93.6228 116.818 93.8372 117.645C94.088 118.612 94.5476 119.225 95.4848 119.741C97.039 120.599 98.6428 121.49 99.7358 123.121C100.062 123.402 100.386 123.685 100.714 123.964ZM93.796 86.4502C93.286 87.1928 94.2316 89.7946 94.7458 89.9882C98.3452 91.3429 99.3714 89.0246 99.4187 88.388C99.5124 87.1248 99.6682 85.844 98.474 84.8196C95.3238 84.193 94.6201 85.2501 93.796 86.4502ZM107.578 87.502C107.095 86.2968 106.363 85.5107 105.088 85.7858C104.437 85.9262 103.864 86.4418 103.266 86.8038C101.98 87.5813 101.812 88.0067 102.262 89.385C102.711 90.7645 103.76 91.5547 105.095 91.8229C106.199 92.0449 106.989 91.3599 107.572 90.3291C107.719 89.3876 107.961 88.4558 107.578 87.502ZM102.812 85.9438C103.331 85.5747 103.893 85.0283 104.453 85.0081C105.422 84.9732 105.264 84.3817 105.16 83.9158C104.868 82.6143 104.486 81.332 104.114 80.0497C103.859 79.1719 103.644 79.1215 103.025 79.7398C101.966 80.7989 100.893 81.8375 99.5626 82.5686C99.1465 82.7973 99.0893 83.3241 99.3868 83.7391C99.4976 83.8936 99.6479 84.0261 99.7309 84.193C100.14 85.0156 100.511 85.8581 100.948 86.6653C101.044 86.8438 100.971 87.475 101.595 87.0102C101.998 86.6514 102.375 86.2547 102.812 85.9438ZM180.973 181.18C181.876 181.012 182.844 180.78 182.984 179.578C183.007 179.377 183.1 179.184 183.145 178.983C183.43 177.741 183.108 177.343 181.863 177.209C180.692 177.083 179.529 176.874 178.365 176.686C177.743 176.585 177.628 176.702 177.559 177.336C177.464 178.214 177.327 179.089 177.163 179.957C177.019 180.718 177.232 181.319 177.9 181.468C178.926 181.38 179.966 181.367 180.973 181.18ZM126.735 237.738C126.861 237.733 127.076 237.482 127.081 237.339C127.112 236.389 127.089 235.438 127.1 234.488C127.106 233.954 126.696 233.936 126.403 234.03C125.763 234.233 125.155 234.537 124.538 234.808C124.092 235.005 123.591 235.164 123.645 235.807C123.683 236.26 123.683 236.725 123.787 237.164C123.961 237.893 124.59 237.547 125.104 237.692C125.648 237.714 126.193 237.763 126.735 237.738ZM91.3583 160.511C91.3201 160.403 91.163 160.337 91.0604 160.251C90.9859 160.358 90.8561 160.459 90.8459 160.572C90.7834 161.255 90.7301 161.939 90.7092 162.624C90.6887 163.293 91.1625 163.727 91.8433 163.665C91.9586 163.655 92.163 163.452 92.1481 163.37C92.0479 162.826 91.8994 162.291 91.7001 161.687C91.5895 161.294 91.4941 160.895 91.3583 160.511ZM128.779 173.052C128.853 172.907 129.008 172.5 128.558 172.584C127.87 172.713 127.195 172.908 126.519 173.092C126.396 173.126 126.295 173.242 126.183 173.32C126.312 173.381 126.44 173.49 126.571 173.494C127.122 173.514 127.674 173.503 128.292 173.436C128.461 173.312 128.695 173.22 128.779 173.052ZM77.4884 103.406C77.3825 103.467 77.2766 103.529 77.1708 103.591C77.254 103.683 77.3223 103.812 77.4262 103.856C77.4884 103.882 77.6246 103.793 77.6963 103.723C78.1051 103.327 78.5065 102.923 78.9054 102.517C78.9853 102.436 79.0434 102.333 79.1115 102.24C78.9772 102.267 78.8085 102.25 78.7145 102.326C78.3158 102.649 77.9394 102.999 77.4884 103.406Z" fill="#00160A"/>
<path fill-rule="evenodd" clip-rule="evenodd" d="M91.7206 95.6724C91.0984 95.336 90.4829 95.06 90.3536 94.3104C90.1024 92.8537 90.6272 91.1377 92.5255 91.2374C94.2372 91.3274 95.3232 92.7488 94.7176 94.3545C94.2711 95.5383 93.1876 96.1253 91.7206 95.6724Z" fill="#FFB61D"/>
<path fill-rule="evenodd" clip-rule="evenodd" d="M100.162 90.2386C100.196 90.0153 100.23 89.859 100.264 89.7026C100.318 89.839 100.387 89.9713 100.423 90.1123C100.69 91.157 101.536 93.7585 100.529 94.9556C100.445 95.0552 100.02 95.0709 99.7547 95.0542C99.2342 95.0212 98.6276 94.2535 98.7241 93.7585C98.7386 93.6843 99.9947 94.9033 100.264 94.2435C100.714 93.1433 100.162 90.6169 100.162 90.2386Z" fill="#00160A"/>
<path fill-rule="evenodd" clip-rule="evenodd" d="M93.076 97.8618C93.0237 97.8353 92.9513 97.8424 92.8887 97.845C92.734 97.8514 92.5222 97.5743 92.6124 97.457C92.7481 97.2806 92.902 97.1024 93.0859 96.9863C93.1954 96.9171 93.3765 97.1414 93.3628 97.2406C93.3526 97.3147 93.423 97.4307 93.4913 97.4809C94.5312 98.2449 95.6857 98.74 96.949 98.978C97.0325 98.9937 97.1051 99.0683 97.1828 99.1155C97.1054 99.1692 97.0284 99.2737 96.9505 99.2691C95.5723 99.1886 93.9789 98.3198 93.076 97.8618Z" fill="#00160A"/>
<path fill-rule="evenodd" clip-rule="evenodd" d="M59.4985 157.686L58.1895 163.277C58.0883 163.71 58.4951 164.088 58.919 163.956L63.4634 162.541C63.8457 162.422 63.9918 161.958 63.7465 161.642L60.5112 157.466C60.2153 157.084 59.6087 157.216 59.4985 157.686ZM60.0574 158.583L62.9101 161.993L58.7484 163.408L60.0574 158.583Z" fill="#FFB61D"/>
<path fill-rule="evenodd" clip-rule="evenodd" d="M63.5602 125.43C63.0817 125.387 62.7653 125.916 63.0293 126.317L66.3585 131.378C66.583 131.72 67.0818 131.724 67.3121 131.387L70.3764 126.899C70.6235 126.537 70.3902 126.043 69.9536 126.004L63.5602 125.43ZM64.0106 126.004L69.7346 127.116L66.3585 130.65L64.0106 126.004Z" fill="#FFB61D"/>
<path fill-rule="evenodd" clip-rule="evenodd" d="M84.6588 164.131H79.9631C79.5738 164.131 79.2975 164.511 79.4167 164.881L80.9941 169.784C81.143 170.247 81.7639 170.326 82.0248 169.916L85.1431 165.013C85.3862 164.631 85.1116 164.131 84.6588 164.131ZM84.2761 165.088L81.9231 169.608L80.3458 164.705L84.2761 165.088Z" fill="#FFB61D"/>
<path fill-rule="evenodd" clip-rule="evenodd" d="M69.272 190.698L69.0574 194.948C69.0349 195.393 69.5069 195.693 69.9006 195.484L75.3602 192.575C75.8227 192.329 75.7403 191.642 75.2326 191.512L69.9876 190.171C69.636 190.081 69.2903 190.335 69.272 190.698ZM69.687 191.103L74.7044 191.8L69.9006 194.64L69.687 191.103Z" fill="#FFB61D"/>
<path fill-rule="evenodd" clip-rule="evenodd" d="M62.0335 138.495L57.8242 141.413C57.468 141.66 57.5034 142.197 57.889 142.395L62.815 144.924C63.2268 145.136 63.7066 144.798 63.6462 144.339L62.9296 138.892C62.8736 138.466 62.3866 138.25 62.0335 138.495ZM62.2025 139.509L63.0771 144.414L58.1512 141.885L62.2025 139.509Z" fill="#FFB61D"/>
<path fill-rule="evenodd" clip-rule="evenodd" d="M81.3471 150.993L78.7206 154.914C78.4944 155.252 78.6811 155.711 79.0787 155.795L82.1498 156.445C82.5292 156.525 82.8774 156.214 82.8399 155.827L82.3953 151.256C82.3431 150.72 81.6471 150.545 81.3471 150.993ZM82.0623 151.778V155.978L79.4217 154.914L82.0623 151.778Z" fill="#FFB61D"/>
<path fill-rule="evenodd" clip-rule="evenodd" d="M81.8453 132.518C82.6095 132.019 83.28 132.137 82.7344 133.235C82.7344 133.235 78.7505 143.336 77.5602 143.455C76.4314 143.569 75.8865 142.109 74.3103 137.935L74.2433 137.757C74.2374 137.742 74.2322 137.726 74.2277 137.71L74.2193 137.677L74.209 137.658L74.1872 137.607L73.9987 137.098C73.776 136.49 73.2157 135.487 72.9193 135.138C72.6036 134.767 73.3081 134.537 73.8285 134.537C74.7998 134.537 75.9883 134.809 77.8575 134.269C80.0466 133.637 80.7978 133.201 81.8453 132.518ZM80.151 137.707L80.0984 137.741C79.5427 138.083 78.9284 138.346 78.2572 138.53C77.4543 138.749 76.2894 138.776 75.5358 138.612L75.4098 138.582L75.4563 138.698C75.8815 139.758 76.2597 140.984 76.5892 141.607L76.7042 141.82C76.9109 142.191 77.0923 142.461 77.239 142.623L77.2848 142.671L77.3419 142.602C77.5875 142.288 78.4621 141.106 79.0696 139.925L79.1332 139.801C79.3933 139.291 79.677 138.712 79.9842 138.063L80.151 137.707ZM81.7907 133.685L81.6983 133.737C80.8341 134.219 79.4045 135.017 78.1758 135.372C76.7049 135.797 75.4579 135.948 74.4322 135.812L74.3693 135.803L74.4053 135.904C74.5032 136.179 74.9187 137.477 75.0658 137.677C75.661 138.227 76.3911 138.279 77.2848 138.063L77.4129 138.029C80.6133 137.411 81.7907 133.685 81.7907 133.685Z" fill="#FFB61D"/>
<path fill-rule="evenodd" clip-rule="evenodd" d="M194.181 168.997C194.309 168.903 194.488 168.93 194.582 169.058C195.245 169.956 196.367 170.001 197.858 169.173C197.997 169.096 198.171 169.146 198.248 169.284C198.325 169.423 198.275 169.597 198.137 169.674C196.421 170.627 194.985 170.57 194.12 169.398C194.026 169.271 194.054 169.091 194.181 168.997Z" fill="#E7EAEE"/>
<path fill-rule="evenodd" clip-rule="evenodd" d="M192.012 171.296C192.129 171.19 192.311 171.198 192.417 171.316C193.422 172.421 194.758 172.484 195.844 171.904C195.984 171.829 196.158 171.882 196.232 172.022C196.307 172.162 196.254 172.336 196.114 172.41C194.817 173.103 193.197 173.027 191.993 171.702C191.886 171.584 191.895 171.403 192.012 171.296Z" fill="#E7EAEE"/>
<path fill-rule="evenodd" clip-rule="evenodd" d="M189.662 173.574C189.777 173.465 189.959 173.47 190.067 173.586C191.036 174.615 193.005 175.118 194.352 174.404C194.492 174.33 194.666 174.383 194.74 174.523C194.814 174.663 194.761 174.837 194.621 174.911C193.026 175.756 190.783 175.183 189.649 173.979C189.541 173.864 189.546 173.682 189.662 173.574Z" fill="#E7EAEE"/>
<path fill-rule="evenodd" clip-rule="evenodd" d="M191.486 182.574C193.501 181.599 191.418 177.987 189.468 179.449C188.218 180.387 189.589 183.492 191.486 182.574Z" fill="#E7EAEE"/>
</svg>
